<?xml version="1.0" standalone="no"?>
<!DOCTYPE svg PUBLIC "-//W3C//DTD SVG 20010904//EN"
 "http://www.w3.org/TR/2001/REC-SVG-20010904/DTD/svg10.dtd">
<svg version="1.0" xmlns="http://www.w3.org/2000/svg"
 width="480.000000pt" height="480.000000pt" viewBox="0 0 480.000000 480.000000"
 preserveAspectRatio="xMidYMid meet">
<metadata>
Created by potrace 1.11, written by Peter Selinger 2001-2013
</metadata>
<g transform="translate(0.000000,480.000000) scale(0.100000,-0.100000)"
fill="#000000" stroke="none">
<path d="M1140 4790 c-280 -25 -541 -145 -746 -342 -98 -94 -171 -185 -158
-198 24 -22 464 -270 480 -270 11 0 240 128 509 284 l490 284 3 126 3 126
-248 -1 c-136 -1 -286 -5 -333 -9z"/>
<path d="M2170 4557 l0 -243 -192 -109 c-106 -60 -247 -138 -313 -175 -66 -36
-199 -111 -295 -167 -96 -55 -283 -162 -416 -237 l-241 -137 -254 147 c-140
80 -288 166 -329 190 -41 24 -77 41 -81 36 -16 -16 -39 -177 -44 -314 l-6
-143 263 -151 263 -150 3 -846 2 -846 -247 -143 c-137 -78 -254 -147 -261
-154 -11 -10 -11 -27 3 -101 50 -269 173 -495 374 -686 145 -138 309 -234 506
-295 l90 -27 363 -4 362 -3 -2 471 -3 471 -395 229 -395 229 -3 849 -2 850
282 163 c156 89 351 202 433 250 333 193 745 429 750 429 5 0 545 -309 655
-375 30 -18 161 -94 290 -168 129 -74 299 -171 378 -216 l142 -83 0 -841 0
-842 -407 -236 -408 -236 -3 -472 -2 -472 387 3 388 4 90 27 c197 61 361 157
506 295 197 187 324 417 372 675 l15 78 -77 44 c-42 24 -164 95 -271 158
l-195 113 0 854 0 854 278 160 277 161 0 60 c0 94 -19 263 -38 342 l-17 72
-90 -53 c-122 -72 -530 -308 -580 -336 l-40 -22 -395 227 c-217 125 -449 258
-515 295 -66 37 -210 119 -320 183 l-200 114 -3 247 -2 246 -215 0 -215 0 0
-243z"/>
<path d="M3030 4676 l0 -126 43 -26 c273 -163 944 -544 959 -544 16 0 111 53
461 257 l69 40 -50 59 c-195 231 -428 372 -720 435 -84 18 -143 21 -429 26
l-333 6 0 -127z"/>
<path d="M1994 3212 c-215 -125 -443 -256 -505 -292 l-114 -65 -3 -596 -2
-596 392 -235 393 -235 6 -564 c3 -310 7 -579 8 -596 l1 -33 215 0 215 0 0
594 0 594 173 100 c94 55 279 161 410 237 l237 137 -2 596 -3 597 -70 41
c-295 173 -944 544 -951 543 -5 0 -185 -102 -400 -227z"/>
<path d="M4738 2882 l-58 -34 0 -589 0 -589 56 -36 c31 -20 58 -34 60 -31 2 2
3 298 2 658 l-3 655 -57 -34z"/>
<path d="M0 2254 l0 -656 38 23 c20 13 45 28 55 33 16 10 17 47 15 605 l-3
595 -45 27 c-25 15 -48 28 -52 28 -5 1 -8 -294 -8 -655z"/>
</g>
</svg>
